<?xml version="1.0" encoding="UTF-8" standalone="no" ?>
<!DOCTYPE svg PUBLIC "-//W3C//DTD SVG 1.1//EN" "http://www.w3.org/Graphics/SVG/1.1/DTD/svg11.dtd">
<svg xmlns="http://www.w3.org/2000/svg" xmlns:xlink="http://www.w3.org/1999/xlink" version="1.1" width="491.5268" height="631.2508799999999" xml:space="preserve">
<desc>Created with Fabric.js 1.6.0-rc.1</desc>
<defs></defs>
<g style="stroke: none; stroke-width: 1; stroke-dasharray: none; stroke-linecap: butt; stroke-linejoin: miter; stroke-miterlimit: 10; fill: none; fill-rule: nonzero; opacity: 1;" transform="translate(18.00999999999999 10) scale(0.96 0.92)" >
  <path d="M 45.099 30.118 c 0 0 353.882 0 376.471 0 c 22.588 0 60.235 15.059 60.235 60.235 c 0 4.668 -0.678 9.035 -2.041 13.101 c -12.8 40.207 -85.775 54.362 -175.578 94.494 c -17.867 7.876 -37.752 17.702 -55.793 27.934 c -52.488 29.485 -60.19 -45.176 -120.471 -45.176 c -60.235 0 -67.765 52.706 -90.353 52.706 C -30.218 195.825 7.414 30.118 45.099 30.118 z" style="stroke: none; stroke-width: 1; stroke-dasharray: none; stroke-linecap: butt; stroke-linejoin: miter; stroke-miterlimit: 10; fill: #212121; fill-rule: nonzero; opacity: 1;" transform=" matrix(1 0 0 1 0 0) " stroke-linecap="round" />
  <path d="M 436.779 451.765 c 0 0 -353.882 0 -376.471 0 S 0.073 436.706 0.073 391.529 c 0 -4.668 0.678 -9.035 2.033 -13.101 c 12.8 -40.207 85.768 -54.362 175.586 -94.494 c 17.86 -7.876 37.745 -17.702 55.793 -27.934 c 52.488 -29.478 60.19 45.176 120.471 45.176 c 60.235 0 67.765 -52.706 90.353 -52.706 C 512.111 286.057 474.479 451.765 436.779 451.765 z" style="stroke: none; stroke-width: 1; stroke-dasharray: none; stroke-linecap: butt; stroke-linejoin: miter; stroke-miterlimit: 10; fill: #212121; fill-rule: nonzero; opacity: 1;" transform=" matrix(1 0 0 1 0 0) " stroke-linecap="round" />
  <path d="M 326.413 394.632 c 5.135 3.923 7.176 10.677 5.105 16.791 c -2.071 6.114 -7.831 10.225 -14.276 10.225 c -79.533 0 -240.023 0 -256.934 0 c -19.501 0 -50.146 -11.219 -58.202 -43.219 c 12.823 -40.184 85.79 -54.385 175.586 -94.494 C 230.232 321.498 289.707 366.547 326.413 394.632 z" style="stroke: none; stroke-width: 1; stroke-dasharray: none; stroke-linecap: butt; stroke-linejoin: miter; stroke-miterlimit: 10; fill: #687484; fill-rule: nonzero; opacity: 1;" transform=" matrix(1 0 0 1 0 0) " stroke-linecap="round" />
  <path d="M 481.579 347.031 c -26.955 14.005 -57.517 21.911 -89.976 21.911 c -75.219 0 -140.499 -42.391 -173.252 -104.659 c 5.045 -2.635 10.089 -5.421 15.134 -8.282 c 33.506 -18.824 48.791 4.826 71.153 24.395 c 12.649 11.068 27.55 20.781 49.318 20.781 c 60.235 0 67.765 -52.706 90.353 -52.706 C 474.05 264.952 483.461 306.071 481.579 347.031 z" style="stroke: none; stroke-width: 1; stroke-dasharray: none; stroke-linecap: butt; stroke-linejoin: miter; stroke-miterlimit: 10; fill: #687484; fill-rule: nonzero; opacity: 1;" transform=" matrix(1 0 0 1 0 0) " stroke-linecap="round" />
  <path d="M 233.485 256 c -5.045 2.861 -10.089 5.647 -15.134 8.282 c 13.658 25.984 33.054 48.437 56.395 65.852 l 41.043 -41.043 c -3.938 -2.68 -7.657 -5.617 -11.151 -8.681 C 282.275 260.826 266.991 237.176 233.485 256 z" style="stroke: none; stroke-width: 1; stroke-dasharray: none; stroke-linecap: butt; stroke-linejoin: miter; stroke-miterlimit: 10; fill: #f0f0f0; fill-rule: nonzero; opacity: 1;" transform=" matrix(1 0 0 1 0 0) " stroke-linecap="round" />
  <path d="M 177.692 283.934 c -89.796 40.109 -162.763 54.31 -175.586 94.494 c 8.056 32 38.701 43.219 58.202 43.219 c 9.412 0 63.285 0 122.925 0 l 77.071 -77.071 C 233.635 324.585 204.753 303.277 177.692 283.934 z" style="stroke: none; stroke-width: 1; stroke-dasharray: none; stroke-linecap: butt; stroke-linejoin: miter; stroke-miterlimit: 10; fill: #f0f0f0; fill-rule: nonzero; opacity: 1;" transform=" matrix(1 0 0 1 0 0) " stroke-linecap="round" />
  <path d="M 54.202 451.381 l 6.106 30.502 h 30.118 l 7.529 -30.118 c -20.043 0 -33.754 0 -37.647 0 C 58.381 451.765 56.325 451.607 54.202 451.381 z" style="stroke: none; stroke-width: 1; stroke-dasharray: none; stroke-linecap: butt; stroke-linejoin: miter; stroke-miterlimit: 10; fill: #cfcfcf; fill-rule: nonzero; opacity: 1;" transform=" matrix(1 0 0 1 0 0) " stroke-linecap="round" />
  <polygon points="158.19,451.76 113.01,451.76 120.54,481.88 150.66,481.88 " style="stroke: none; stroke-width: 1; stroke-dasharray: none; stroke-linecap: butt; stroke-linejoin: miter; stroke-miterlimit: 10; fill: #cfcfcf; fill-rule: nonzero; opacity: 1;" transform="  matrix(1 0 0 1 0 0) "/>
  <polygon points="218.43,451.76 173.25,451.76 180.78,481.88 210.9,481.88 " style="stroke: none; stroke-width: 1; stroke-dasharray: none; stroke-linecap: butt; stroke-linejoin: miter; stroke-miterlimit: 10; fill: #cfcfcf; fill-rule: nonzero; opacity: 1;" transform="  matrix(1 0 0 1 0 0) "/>
  <polygon points="369.01,451.76 308.78,451.76 316.31,481.88 361.49,481.88 " style="stroke: none; stroke-width: 1; stroke-dasharray: none; stroke-linecap: butt; stroke-linejoin: miter; stroke-miterlimit: 10; fill: #cfcfcf; fill-rule: nonzero; opacity: 1;" transform="  matrix(1 0 0 1 0 0) "/>
  <polygon points="436.78,451.76 376.54,451.76 384.07,481.88 429.25,481.88 " style="stroke: none; stroke-width: 1; stroke-dasharray: none; stroke-linecap: butt; stroke-linejoin: miter; stroke-miterlimit: 10; fill: #cfcfcf; fill-rule: nonzero; opacity: 1;" transform="  matrix(1 0 0 1 0 0) "/>
  <path d="M 304.638 280.395 l -163.087 74.391 c -7.273 3.313 -15.556 3.607 -23.04 0.798 c -7.484 -2.793 -13.553 -8.44 -16.866 -15.706 l -9.713 -21.308 c 40.433 -15.812 90.278 -33.732 141.553 -62.569 C 266.991 237.176 282.275 260.826 304.638 280.395 z" style="stroke: none; stroke-width: 1; stroke-dasharray: none; stroke-linecap: butt; stroke-linejoin: miter; stroke-miterlimit: 10; fill: #f0f0f0; fill-rule: nonzero; opacity: 1;" transform=" matrix(1 0 0 1 0 0) " stroke-linecap="round" />
  <path d="M 142.115 294.618 c -2.665 -5.64 -9.397 -8.041 -15.036 -5.391 c -5.64 2.65 -8.049 9.397 -5.391 15.036 l 9.653 20.427 c 2.665 5.632 9.389 8.041 15.036 5.384 c 5.632 -2.665 8.049 -9.389 5.384 -15.029 L 142.115 294.618 z" style="stroke: none; stroke-width: 1; stroke-dasharray: none; stroke-linecap: butt; stroke-linejoin: miter; stroke-miterlimit: 10; fill: #212121; fill-rule: nonzero; opacity: 1;" transform=" matrix(1 0 0 1 0 0) " stroke-linecap="round" />
  <path d="M 182.963 275.32 c -2.665 -5.647 -9.389 -8.056 -15.036 -5.399 c -5.632 2.665 -8.049 9.397 -5.384 15.044 l 9.645 20.412 c 2.665 5.647 9.397 8.049 15.036 5.399 c 5.64 -2.665 8.049 -9.397 5.391 -15.044 L 182.963 275.32 z" style="stroke: none; stroke-width: 1; stroke-dasharray: none; stroke-linecap: butt; stroke-linejoin: miter; stroke-miterlimit: 10; fill: #212121; fill-rule: nonzero; opacity: 1;" transform=" matrix(1 0 0 1 0 0) " stroke-linecap="round" />
  <path d="M 223.817 256.023 c -2.665 -5.64 -9.397 -8.049 -15.036 -5.391 c -5.64 2.665 -8.049 9.397 -5.391 15.036 l 9.645 20.427 c 2.665 5.64 9.397 8.049 15.036 5.391 c 5.64 -2.665 8.049 -9.397 5.391 -15.036 L 223.817 256.023 z" style="stroke: none; stroke-width: 1; stroke-dasharray: none; stroke-linecap: butt; stroke-linejoin: miter; stroke-miterlimit: 10; fill: #212121; fill-rule: nonzero; opacity: 1;" transform=" matrix(1 0 0 1 0 0) " stroke-linecap="round" />
  <path d="M 427.676 30.502 L 421.57 0 h -30.118 l -7.529 30.118 c 20.043 0 33.747 0 37.647 0 C 423.497 30.118 425.56 30.276 427.676 30.502 z" style="stroke: none; stroke-width: 1; stroke-dasharray: none; stroke-linecap: butt; stroke-linejoin: miter; stroke-miterlimit: 10; fill: #cfcfcf; fill-rule: nonzero; opacity: 1;" transform=" matrix(1 0 0 1 0 0) " stroke-linecap="round" />
  <path d="M 155.473 87.251 c -5.128 -3.923 -7.176 -10.677 -5.105 -16.791 c 2.071 -6.114 7.816 -10.225 14.268 -10.225 c 79.533 0 240.023 0 256.941 0 c 19.501 0 50.146 11.219 58.195 43.219 c -12.823 40.184 -85.79 54.385 -175.578 94.494 C 251.646 160.384 192.178 115.343 155.473 87.251 z" style="stroke: none; stroke-width: 1; stroke-dasharray: none; stroke-linecap: butt; stroke-linejoin: miter; stroke-miterlimit: 10; fill: #687484; fill-rule: nonzero; opacity: 1;" transform=" matrix(1 0 0 1 0 0) " stroke-linecap="round" />
  <polygon points="323.69,30.12 368.86,30.12 361.33,0 331.22,0 " style="stroke: none; stroke-width: 1; stroke-dasharray: none; stroke-linecap: butt; stroke-linejoin: miter; stroke-miterlimit: 10; fill: #cfcfcf; fill-rule: nonzero; opacity: 1;" transform="  matrix(1 0 0 1 0 0) "/>
  <polygon points="263.45,30.12 308.63,30.12 301.1,0 270.98,0 " style="stroke: none; stroke-width: 1; stroke-dasharray: none; stroke-linecap: butt; stroke-linejoin: miter; stroke-miterlimit: 10; fill: #cfcfcf; fill-rule: nonzero; opacity: 1;" transform="  matrix(1 0 0 1 0 0) "/>
  <polygon points="112.86,30.12 173.1,30.12 165.57,0 120.39,0 " style="stroke: none; stroke-width: 1; stroke-dasharray: none; stroke-linecap: butt; stroke-linejoin: miter; stroke-miterlimit: 10; fill: #cfcfcf; fill-rule: nonzero; opacity: 1;" transform="  matrix(1 0 0 1 0 0) "/>
  <polygon points="45.1,30.12 105.33,30.12 97.81,0 52.63,0 " style="stroke: none; stroke-width: 1; stroke-dasharray: none; stroke-linecap: butt; stroke-linejoin: miter; stroke-miterlimit: 10; fill: #cfcfcf; fill-rule: nonzero; opacity: 1;" transform="  matrix(1 0 0 1 0 0) "/>
  <path d="M 0.374 134.852 c 26.955 -14.005 57.525 -21.911 89.976 -21.911 c 75.219 0 140.499 42.391 173.252 104.659 c -5.045 2.635 -10.089 5.421 -15.134 8.282 c -33.506 18.824 -48.791 -4.819 -71.153 -24.395 c -12.649 -11.068 -27.558 -20.781 -49.318 -20.781 c -60.235 0 -67.765 52.706 -90.353 52.706 C 7.904 216.93 -1.508 175.812 0.374 134.852 z" style="stroke: none; stroke-width: 1; stroke-dasharray: none; stroke-linecap: butt; stroke-linejoin: miter; stroke-miterlimit: 10; fill: #687484; fill-rule: nonzero; opacity: 1;" transform=" matrix(1 0 0 1 0 0) " stroke-linecap="round" />
  <path d="M 177.24 201.487 l 163.087 -74.383 c 7.281 -3.313 15.556 -3.607 23.055 -0.813 c 7.477 2.793 13.545 8.448 16.858 15.721 l 9.705 21.308 c -40.425 15.812 -90.263 33.724 -141.545 62.569 C 214.887 244.706 199.61 221.064 177.24 201.487 z" style="stroke: none; stroke-width: 1; stroke-dasharray: none; stroke-linecap: butt; stroke-linejoin: miter; stroke-miterlimit: 10; fill: #f0f0f0; fill-rule: nonzero; opacity: 1;" transform=" matrix(1 0 0 1 0 0) " stroke-linecap="round" />
  <path d="M 339.763 187.264 c 2.665 5.64 9.397 8.056 15.029 5.391 c 5.647 -2.665 8.056 -9.397 5.399 -15.036 l -9.645 -20.427 c -2.665 -5.632 -9.397 -8.049 -15.036 -5.384 c -5.64 2.665 -8.049 9.397 -5.391 15.036 L 339.763 187.264 z" style="stroke: none; stroke-width: 1; stroke-dasharray: none; stroke-linecap: butt; stroke-linejoin: miter; stroke-miterlimit: 10; fill: #212121; fill-rule: nonzero; opacity: 1;" transform=" matrix(1 0 0 1 0 0) " stroke-linecap="round" />
  <path d="M 298.908 206.569 c 2.665 5.64 9.397 8.049 15.044 5.384 c 5.632 -2.665 8.041 -9.389 5.384 -15.036 l -9.645 -20.42 c -2.665 -5.64 -9.397 -8.049 -15.036 -5.391 c -5.64 2.658 -8.049 9.397 -5.391 15.036 L 298.908 206.569 z" style="stroke: none; stroke-width: 1; stroke-dasharray: none; stroke-linecap: butt; stroke-linejoin: miter; stroke-miterlimit: 10; fill: #212121; fill-rule: nonzero; opacity: 1;" transform=" matrix(1 0 0 1 0 0) " stroke-linecap="round" />
  <path d="M 258.076 225.86 c 2.665 5.64 9.397 8.049 15.029 5.391 c 5.64 -2.658 8.049 -9.397 5.399 -15.036 l -9.645 -20.427 c -2.665 -5.64 -9.397 -8.049 -15.036 -5.391 c -5.64 2.665 -8.049 9.397 -5.391 15.036 L 258.076 225.86 z" style="stroke: none; stroke-width: 1; stroke-dasharray: none; stroke-linecap: butt; stroke-linejoin: miter; stroke-miterlimit: 10; fill: #212121; fill-rule: nonzero; opacity: 1;" transform=" matrix(1 0 0 1 0 0) " stroke-linecap="round" />
  <path d="M 90.351 112.941 c -32.459 0 -63.021 7.906 -89.976 21.911 c -1.882 40.952 7.529 82.071 37.271 98.56 c 22.588 0 30.118 -52.706 90.353 -52.706 c 12.664 0 22.972 3.343 31.895 8.282 l 41.457 -41.457 C 169.809 125.749 131.597 112.941 90.351 112.941 z" style="stroke: none; stroke-width: 1; stroke-dasharray: none; stroke-linecap: butt; stroke-linejoin: miter; stroke-miterlimit: 10; fill: #f0f0f0; fill-rule: nonzero; opacity: 1;" transform=" matrix(1 0 0 1 0 0) " stroke-linecap="round" />
  <path d="M 164.636 60.235 c -6.453 0 -12.198 4.104 -14.276 10.217 c -2.078 6.114 -0.023 12.868 5.105 16.791 c 16.444 12.589 37.474 28.589 60.386 45.779 l 72.794 -72.787 C 244.041 60.235 197.457 60.235 164.636 60.235 z" style="stroke: none; stroke-width: 1; stroke-dasharray: none; stroke-linecap: butt; stroke-linejoin: miter; stroke-miterlimit: 10; fill: #f0f0f0; fill-rule: nonzero; opacity: 1;" transform=" matrix(1 0 0 1 0 0) " stroke-linecap="round" />
</g>
  <g transform="translate(120.22 527.06) scale(3.29 3.54)">
   <text font-family="Republika II Exp" font-size="40" font-weight="normal" style="stroke: none; stroke-width: 1; stroke-dasharray: none; stroke-linecap: butt; stroke-linejoin: miter; stroke-miterlimit: 10; fill: #a8a8a8; fill-rule: nonzero; opacity: 1;" ><tspan x="-33" y="8.98" style="stroke: none; stroke-width: 0; stroke-dasharray: none; stroke-linecap: butt; stroke-linejoin: miter; stroke-miterlimit: 4; fill: #a8a8a8; fill-rule: ; opacity: 1;">N</tspan><tspan x="0" y="8.98" style="stroke: none; stroke-width: 0; stroke-dasharray: none; stroke-linecap: butt; stroke-linejoin: miter; stroke-miterlimit: 4; fill: #a8a8a8; fill-rule: ; opacity: 1;">E</tspan></text>
 </g>
  <g transform="translate(347.11 528.93) scale(2.53 3.59)">
   <text font-family="Republika II Exp" font-size="40" font-weight="normal" style="stroke: none; stroke-width: 1; stroke-dasharray: none; stroke-linecap: butt; stroke-linejoin: miter; stroke-miterlimit: 10; fill: #00f52d; fill-rule: nonzero; opacity: 1;" ><tspan x="-46.5" y="8.98" style="stroke: none; stroke-width: 0; stroke-dasharray: none; stroke-linecap: butt; stroke-linejoin: miter; stroke-miterlimit: 4; fill: #00f52d; fill-rule: ; opacity: 1;">X</tspan><tspan x="-18.5" y="8.98" style="stroke: none; stroke-width: 0; stroke-dasharray: none; stroke-linecap: butt; stroke-linejoin: miter; stroke-miterlimit: 4; fill: #00f52d; fill-rule: ; opacity: 1;">U</tspan><tspan x="14.5" y="8.98" style="stroke: none; stroke-width: 0; stroke-dasharray: none; stroke-linecap: butt; stroke-linejoin: miter; stroke-miterlimit: 4; fill: #00f52d; fill-rule: ; opacity: 1;">S</tspan></text>
 </g>
</svg>